# xmcd
#
# Track frame offsets:
#	150
#	14878
#	27229
#	42649
#	55711
#	68503
#	83407
#	100010
#	111747
#	125505
#
# Disc length: 1829 seconds
#
# Revision: 1
# Processed by: cddbd v1.5.2PL0 Copyright (c) Steve Scherf et al.
# Submitted via: audiograbber 1.83.01
#
DISCID=8307230a
DTITLE=Pistol Annies - Hell On Heels
DYEAR=2011
DGENRE=Country
TTITLE0=Hell on Heels
TTITLE1=Lemon Drop
TTITLE2=Beige
TTITLE3=Bad Example
TTITLE4=Housewife's Prayer
TTITLE5=Takin' Pills
TTITLE6=Boys From the South
TTITLE7=The Hunter's Wife
TTITLE8=Trailer For Rent
TTITLE9=Family Feud
EXTD=
EXTT0=
EXTT1=
EXTT2=
EXTT3=
EXTT4=
EXTT5=
EXTT6=
EXTT7=
EXTT8=
EXTT9=
PLAYORDER=
